HIERARCHY
ROOT hip
{
  OFFSET 0 0 0
  CHANNELS 6 Xposition Yposition Zposition Zrotation Yrotation Xrotation
  JOINT abdomen
  {
    OFFSET 0 20.6881 -0.73152
    CHANNELS 3 Zrotation Xrotation Yrotation
    JOINT chest
    {
      OFFSET 0 11.7043 -0.48768
      CHANNELS 3 Zrotation Xrotation Yrotation
      JOINT neck
      {
        OFFSET 0 22.1894 -2.19456
        CHANNELS 3 Zrotation Xrotation Yrotation
        JOINT head
        {
          OFFSET -0.24384 7.07133 1.2192
          CHANNELS 3 Zrotation Xrotation Yrotation
          JOINT leftEye
          {
            OFFSET 4.14528 8.04674 8.04672
            CHANNELS 3 Zrotation Xrotation Yrotation
            End Site
            {
              OFFSET 1 0 0
            }
          }
          JOINT rightEye
          {
            OFFSET -3.6576 8.04674 8.04672
            CHANNELS 3 Zrotation Xrotation Yrotation
            End Site
            {
              OFFSET 1 0 0
            }
          }
        }
      }
      JOINT rCollar
      {
        OFFSET -2.68224 19.2634 -4.8768
        CHANNELS 3 Zrotation Xrotation Yrotation
        JOINT rShldr
        {
          OFFSET -8.77824 -1.95073 1.46304
          CHANNELS 3 Zrotation Xrotation Yrotation
          JOINT rForeArm
          {
            OFFSET -28.1742 -1.7115 0.48768
            CHANNELS 3 Zrotation Xrotation Yrotation
            JOINT rHand
            {
              OFFSET -22.5879 0.773209 7.07136
              CHANNELS 3 Zrotation Xrotation Yrotation
              JOINT rThumb1
              {
                OFFSET -1.2192 -0.487915 3.41376
                CHANNELS 3 Zrotation Xrotation Yrotation
                JOINT rThumb2
                {
                  OFFSET -3.37035 -0.52449 3.41376
                  CHANNELS 3 Zrotation Xrotation Yrotation
                  End Site
                  {
                    OFFSET -1.78271 -1.18214 1.43049
                  }
                }
              }
              JOINT rIndex1
              {
                OFFSET -7.75947 0.938293 5.60832
                CHANNELS 3 Zrotation Xrotation Yrotation
                JOINT rIndex2
                {
                  OFFSET -2.54057 -0.884171 1.56538
                  CHANNELS 3 Zrotation Xrotation Yrotation
                  End Site
                  {
                    OFFSET -1.62519 -0.234802 1.16502
                  }
                }
              }
              JOINT rMid1
              {
                OFFSET -8.24714 1.18213 3.41376
                CHANNELS 3 Zrotation Xrotation Yrotation
                JOINT rMid2
                {
                  OFFSET -3.10165 -0.590103 1.0647
                  CHANNELS 3 Zrotation Xrotation Yrotation
                  End Site
                  {
                    OFFSET -2.48547 -0.328903 0.83742
                  }
                }
              }
              JOINT rRing1
              {
                OFFSET -8.82822 0.546677 1.51678
                CHANNELS 3 Zrotation Xrotation Yrotation
                JOINT rRing2
                {
                  OFFSET -2.60934 -0.819778 -0.0198488
                  CHANNELS 3 Zrotation Xrotation Yrotation
                  End Site
                  {
                    OFFSET -2.33842 -0.294052 0.168128
                  }
                }
              }
              JOINT rPinky1
              {
                OFFSET -8.27202 -0.0477905 -0.4584
                CHANNELS 3 Zrotation Xrotation Yrotation
                JOINT rPinky2
                {
                  OFFSET -1.82734 -0.647385 -0.700984
                  CHANNELS 3 Zrotation Xrotation Yrotation
                  End Site
                  {
                    OFFSET -1.69225 -0.51767 -0.607171
                  }
                }
              }
            }
          }
        }
      }
      JOINT lCollar
      {
        OFFSET 2.68224 19.2634 -4.8768
        CHANNELS 3 Zrotation Xrotation Yrotation
        JOINT lShldr
        {
          OFFSET 8.77824 -1.95073 1.46304
          CHANNELS 3 Zrotation Xrotation Yrotation
          JOINT lForeArm
          {
            OFFSET 28.1742 -1.7115 0.48768
            CHANNELS 3 Zrotation Xrotation Yrotation
            JOINT lHand
            {
              OFFSET 22.5879 0.773209 7.07136
              CHANNELS 3 Zrotation Xrotation Yrotation
              JOINT lThumb1
              {
                OFFSET 1.2192 -0.487915 3.41376
                CHANNELS 3 Zrotation Xrotation Yrotation
                JOINT lThumb2
                {
                  OFFSET 3.37035 -0.52449 3.41376
                  CHANNELS 3 Zrotation Xrotation Yrotation
                  End Site
                  {
                    OFFSET 1.78271 -1.18214 1.43049
                  }
                }
              }
              JOINT lIndex1
              {
                OFFSET 7.75947 0.938293 5.60832
                CHANNELS 3 Zrotation Xrotation Yrotation
                JOINT lIndex2
                {
                  OFFSET 2.54057 -0.884171 1.56538
                  CHANNELS 3 Zrotation Xrotation Yrotation
                  End Site
                  {
                    OFFSET 1.62519 -0.234802 1.16502
                  }
                }
              }
              JOINT lMid1
              {
                OFFSET 8.24714 1.18213 3.41376
                CHANNELS 3 Zrotation Xrotation Yrotation
                JOINT lMid2
                {
                  OFFSET 3.10165 -0.590103 1.0647
                  CHANNELS 3 Zrotation Xrotation Yrotation
                  End Site
                  {
                    OFFSET 2.48547 -0.328903 0.83742
                  }
                }
              }
              JOINT lRing1
              {
                OFFSET 8.82822 0.546677 1.51678
                CHANNELS 3 Zrotation Xrotation Yrotation
                JOINT lRing2
                {
                  OFFSET 2.60934 -0.819778 -0.0198488
                  CHANNELS 3 Zrotation Xrotation Yrotation
                  End Site
                  {
                    OFFSET 2.33842 -0.294052 0.168128
                  }
                }
              }
              JOINT lPinky1
              {
                OFFSET 8.27202 -0.0477905 -0.4584
                CHANNELS 3 Zrotation Xrotation Yrotation
                JOINT lPinky2
                {
                  OFFSET 1.82734 -0.647385 -0.700984
                  CHANNELS 3 Zrotation Xrotation Yrotation
                  End Site
                  {
                    OFFSET 1.69225 -0.51767 -0.607171
                  }
                }
              }
            }
          }
        }
      }
    }
  }
  JOINT rButtock
  {
    OFFSET -8.77824 4.35084 1.2192
    CHANNELS 3 Zrotation Xrotation Yrotation
    JOINT rThigh
    {
      OFFSET 0 -1.70687 -2.19456
      CHANNELS 3 Zrotation Xrotation Yrotation
      JOINT rShin
      {
        OFFSET 0 -36.8199 0.73152
        CHANNELS 3 Zrotation Xrotation Yrotation
        JOINT rFoot
        {
          OFFSET 0.73152 -45.1104 -5.12064
          CHANNELS 3 Zrotation Xrotation Yrotation
          End Site
          {
            OFFSET -1.1221 -3.69964 12.103
          }
        }
      }
    }
  }
  JOINT lButtock
  {
    OFFSET 8.77824 4.35084 1.2192
    CHANNELS 3 Zrotation Xrotation Yrotation
    JOINT lThigh
    {
      OFFSET 0 -1.70687 -2.19456
      CHANNELS 3 Zrotation Xrotation Yrotation
      JOINT lShin
      {
        OFFSET 0 -36.8199 0.73152
        CHANNELS 3 Zrotation Xrotation Yrotation
        JOINT lFoot
        {
          OFFSET -0.73152 -45.1104 -5.12064
          CHANNELS 3 Zrotation Xrotation Yrotation
          End Site
          {
            OFFSET 1.1221 -3.69964 12.103
          }
        }
      }
    }
  }
}
MOTION
Frames:	4
Frame Time:	0.00833333
76.8704 78.9223 118.793 163.454 -8.3773 -161.666 -1.85875 -15.1263 0.285268 -2.46272 14.1481 0.321694 -0.168052 14.5883 5.29529 -3.40378 -2.56527 7.41869 -0.0 0.0 0.0 -0.0 0.0 0.0 -4.0443e-13 -1.42329e-13 -2.54335e-13 67.0567 13.5504 1.37448 -18.5331 -11.2718 35.2266 -0.0259918 -4.60057 -0.647972 5.33898e-09 -8.707e-09 7.51191e-11 9.23216e-09 -1.50669e-08 1.38633e-10 5.33899e-09 -8.707e-09 7.51041e-11 7.73091 5.47488 0.417314 5.33898e-09 -8.707e-09 7.51118e-11 2.90554 0.965183 0.102902 5.33899e-09 -8.707e-09 7.51125e-11 10.2786 0.731801 0.0259123 5.33898e-09 -8.707e-09 7.51179e-11 2.22167 -0.733487 -0.20892 -4.04652e-13 -1.42332e-13 -2.54544e-13 -75.5864 16.5258 5.09787 11.4097 -5.04315 -20.4732 0.0458434 6.09289 -0.859585 6.44496e-09 -1.36681e-10 -1.8807e-09 1.1126e-08 -2.2409e-10 -3.29249e-09 6.44496e-09 -1.36679e-10 -1.88069e-09 -7.73091 5.47488 -0.417314 6.44496e-09 -1.36682e-10 -1.8807e-09 -2.90554 0.965183 -0.102902 6.44495e-09 -1.36684e-10 -1.88069e-09 -10.2786 0.731801 -0.0259123 6.44497e-09 -1.36687e-10 -1.8807e-09 -2.22167 -0.733487 0.20892 -2.03217e-16 0.0 -3.88251e-19 -28.7116 -27.2764 3.74471 -0.1955 38.1823 1.42954 -6.85149 -30.0418 -17.8218 2.03217e-16 0.0 3.88251e-19 21.4539 -36.8443 -10.0186 -0.0135031 15.2997 -0.609225 -6.35627 11.0398 17.9265
76.3571 78.8115 118.639 163.358 -8.2925 -161.653 -1.69988 -15.0545 0.363627 -2.54376 14.1273 0.345761 -0.226387 14.6194 5.27877 -3.41918 -2.56186 7.3797 -0.0 0.0 0.0 -0.0 0.0 0.0 -4.23275e-13 -1.20857e-13 -3.25907e-13 66.8514 13.6953 1.56771 -18.6036 -11.3507 35.3888 -0.0270032 -4.68565 -0.660011 5.69636e-09 -9.16755e-09 -8.23e-11 9.84997e-09 -1.58644e-08 -1.33084e-10 5.69637e-09 -9.16755e-09 -8.23128e-11 7.73091 5.47488 0.417314 5.69636e-09 -9.16756e-09 -8.23096e-11 2.90554 0.965183 0.102902 5.69637e-09 -9.16755e-09 -8.23088e-11 10.2786 0.731801 0.0259123 5.69636e-09 -9.16755e-09 -8.23032e-11 2.22167 -0.733487 -0.20892 -4.23526e-13 -1.20867e-13 -3.26106e-13 -75.6176 16.3646 5.29992 11.4667 -5.08163 -20.5824 0.0456479 6.08626 -0.858632 6.97354e-09 2.92614e-10 -1.73462e-09 1.20408e-08 5.19693e-10 -3.04327e-09 6.97354e-09 2.92617e-10 -1.73461e-09 -7.73091 5.47488 -0.417314 6.97354e-09 2.92614e-10 -1.73462e-09 -2.90554 0.965183 -0.102902 6.97353e-09 2.92612e-10 -1.73461e-09 -10.2786 0.731801 -0.0259123 6.97355e-09 2.92608e-10 -1.73462e-09 -2.22167 -0.733487 0.20892 -2.03217e-16 0.0 -3.88251e-19 -29.1335 -27.0683 3.7377 -0.194877 38.0334 1.41692 -6.82634 -30.1749 -17.7363 2.03217e-16 0.0 3.88251e-19 21.3902 -36.8399 -10.0615 -0.0151296 15.0019 -0.607464 -6.47428 11.4028 17.7752
75.8954 78.6962 118.511 163.339 -8.3825 -161.655 -1.64283 -14.9281 0.44908 -2.59752 14.1216 0.37224 -0.155403 14.6113 5.20701 -3.56625 -2.5584 7.23553 -0.0 0.0 0.0 -0.0 0.0 0.0 -3.35897e-13 -1.00731e-13 -3.3299e-13 66.6459 13.7714 1.83846 -18.6515 -11.4044 35.4995 -0.0270345 -4.68664 -0.660154 5.38337e-09 -8.80768e-09 -2.94286e-10 9.31072e-09 -1.52443e-08 -5.0078e-10 5.38338e-09 -8.80768e-09 -2.94298e-10 7.73091 5.47488 0.417314 5.38337e-09 -8.80768e-09 -2.94297e-10 2.90554 0.965183 0.102902 5.38337e-09 -8.80768e-09 -2.94296e-10 10.2786 0.731801 0.0259123 5.38337e-09 -8.80768e-09 -2.94292e-10 2.22167 -0.733487 -0.20892 -3.36151e-13 -1.00738e-13 -3.33197e-13 -75.6229 16.3699 5.46164 11.5307 -5.12505 -20.7051 0.0433639 5.93778 -0.837522 6.18736e-09 5.75532e-10 -2.02445e-09 1.06814e-08 1.00829e-09 -3.53998e-09 6.18735e-09 5.75535e-10 -2.02444e-09 -7.73091 5.47488 -0.417314 6.18736e-09 5.75532e-10 -2.02444e-09 -2.90554 0.965183 -0.102902 6.18735e-09 5.75531e-10 -2.02444e-09 -10.2786 0.731801 -0.0259123 6.18736e-09 5.75527e-10 -2.02445e-09 -2.22167 -0.733487 0.20892 -2.03217e-16 0.0 -3.88251e-19 -29.6379 -26.7971 3.73173 -0.194317 37.8728 1.40171 -6.78581 -30.3702 -17.5969 2.03217e-16 0.0 3.88251e-19 21.1738 -36.8206 -10.2208 -0.016388 14.7256 -0.605983 -6.55141 11.6766 17.5802
75.385 78.5792 118.365 163.134 -8.2574 -161.601 -1.65097 -14.7671 0.539525 -2.63119 14.127 0.400201 -0.00537659 14.5788 5.10038 -3.79366 -2.55992 7.02579 -0.0 0.0 0.0 -0.0 0.0 0.0 -1.75997e-13 -6.99731e-14 -2.98944e-13 66.4409 13.8007 2.16199 -18.6852 -11.4423 35.5771 -0.0263732 -4.62934 -0.652046 4.57107e-09 -7.77271e-09 -5.56933e-10 7.90941e-09 -1.34574e-08 -9.57215e-10 4.57108e-09 -7.77271e-09 -5.56944e-10 7.73091 5.47488 0.417314 4.57107e-09 -7.77271e-09 -5.56945e-10 2.90554 0.965183 0.102902 4.57108e-09 -7.77271e-09 -5.56943e-10 10.2786 0.731801 0.0259123 4.57107e-09 -7.77271e-09 -5.56941e-10 2.22167 -0.733487 -0.20892 -1.76236e-13 -6.99725e-14 -2.99168e-13 -75.6201 16.4669 5.60301 11.604 -5.17483 -20.8458 0.0400899 5.70914 -0.805053 4.46525e-09 7.9933e-10 -2.51702e-09 7.7039e-09 1.39313e-09 -4.38174e-09 4.46525e-09 7.99334e-10 -2.51702e-09 -7.73091 5.47488 -0.417314 4.46525e-09 7.99332e-10 -2.51702e-09 -2.90554 0.965183 -0.102902 4.46524e-09 7.99331e-10 -2.51702e-09 -10.2786 0.731801 -0.0259123 4.46525e-09 7.99329e-10 -2.51702e-09 -2.22167 -0.733487 0.20892 -2.03217e-16 0.0 -3.88251e-19 -30.194 -26.4855 3.72414 -0.193795 37.6925 1.38392 -6.73064 -30.603 -17.4162 2.03217e-16 0.0 3.88251e-19 20.8614 -36.7976 -10.4452 -0.0175692 14.4748 -0.605844 -6.60312 11.9088 17.3379
